<svg xmlns="http://www.w3.org/2000/svg" xmlns:xlink="http://www.w3.org/1999/xlink" width="500" zoomAndPan="magnify" viewBox="0 0 375 374.999991" height="500" preserveAspectRatio="xMidYMid meet" version="1.0"><defs><g/><clipPath id="53b7785811"><path d="M 54 70 L 292 70 L 292 95.039062 L 54 95.039062 Z M 54 70 " clip-rule="nonzero"/></clipPath><clipPath id="8112361c12"><rect x="0" width="238" y="0" height="26"/></clipPath><clipPath id="c239724302"><rect x="0" width="334" y="0" height="96"/></clipPath></defs><g transform="matrix(1, 0, 0, 1, 20, 138)"><g clip-path="url(#c239724302)"><g fill="#142754" fill-opacity="1"><g transform="translate(4.114359, 58.152609)"><g><path d="M 44.984375 -0.609375 L 45.53125 -0.609375 L 45.53125 0 L 26.09375 0 L 26.09375 -0.609375 L 26.640625 -0.609375 C 27.535156 -0.609375 28.195312 -0.878906 28.625 -1.421875 C 29.050781 -1.972656 29.265625 -2.492188 29.265625 -2.984375 C 29.265625 -3.472656 29.160156 -3.960938 28.953125 -4.453125 L 25.96875 -11.953125 L 11.703125 -11.953125 L 8.53125 -4.453125 C 8.332031 -3.921875 8.234375 -3.421875 8.234375 -2.953125 C 8.234375 -2.484375 8.457031 -1.972656 8.90625 -1.421875 C 9.351562 -0.878906 10.019531 -0.609375 10.90625 -0.609375 L 11.40625 -0.609375 L 11.40625 0 L -1.640625 0 L -1.640625 -0.609375 L -1.09375 -0.609375 C -0.15625 -0.609375 0.773438 -0.890625 1.703125 -1.453125 C 2.640625 -2.023438 3.414062 -2.878906 4.03125 -4.015625 L 18.109375 -35.90625 C 20.015625 -39.925781 21.03125 -42.585938 21.15625 -43.890625 L 21.703125 -43.890625 L 39.796875 -4.140625 C 40.410156 -2.960938 41.179688 -2.078125 42.109375 -1.484375 C 43.046875 -0.898438 44.003906 -0.609375 44.984375 -0.609375 Z M 12.734375 -14.5 L 24.9375 -14.5 L 19.015625 -29.5 Z M 12.734375 -14.5 "/></g></g></g><g fill="#142754" fill-opacity="1"><g transform="translate(47.754921, 58.152609)"><g><path d="M 19.390625 -39.984375 L 16.765625 -39.984375 C 16.679688 -39.984375 16.617188 -39.984375 16.578125 -39.984375 L 16.578125 -4.453125 C 16.617188 -3.390625 17.015625 -2.484375 17.765625 -1.734375 C 18.515625 -0.984375 19.421875 -0.609375 20.484375 -0.609375 L 21.265625 -0.609375 L 21.265625 0 L 2.75 0 L 2.75 -0.609375 L 3.53125 -0.609375 C 5 -0.609375 6.117188 -1.238281 6.890625 -2.5 C 7.210938 -3.070312 7.394531 -3.703125 7.4375 -4.390625 L 7.4375 -38.21875 C 7.394531 -39.269531 7 -40.171875 6.25 -40.921875 C 5.5 -41.679688 4.59375 -42.0625 3.53125 -42.0625 L 2.75 -42.0625 L 2.75 -42.671875 L 23.65625 -42.671875 C 27.59375 -42.671875 30.921875 -41.816406 33.640625 -40.109375 C 35.023438 -39.253906 36.125 -38.0625 36.9375 -36.53125 C 37.75 -35.007812 38.15625 -33.019531 38.15625 -30.5625 C 38.15625 -28.101562 37.300781 -25.734375 35.59375 -23.453125 C 33.882812 -21.179688 31.40625 -19.882812 28.15625 -19.5625 C 30.519531 -18.789062 32.59375 -17.003906 34.375 -14.203125 C 38.757812 -7.171875 42.007812 -2.984375 44.125 -1.640625 C 45.1875 -0.992188 46.507812 -0.648438 48.09375 -0.609375 L 48.09375 0 L 42.125 0 C 38.582031 0 35.644531 -0.460938 33.3125 -1.390625 C 30.976562 -2.328125 29.140625 -3.976562 27.796875 -6.34375 C 27.023438 -7.675781 25.335938 -11.148438 22.734375 -16.765625 C 21.597656 -19.242188 20.21875 -20.601562 18.59375 -20.84375 L 18.59375 -21.453125 L 20.484375 -21.453125 C 22.304688 -21.453125 23.914062 -22 25.3125 -23.09375 C 26.71875 -24.195312 27.664062 -25.988281 28.15625 -28.46875 C 28.320312 -29.320312 28.40625 -29.992188 28.40625 -30.484375 C 28.40625 -33.804688 27.734375 -36.207031 26.390625 -37.6875 C 25.046875 -39.175781 23.320312 -39.941406 21.21875 -39.984375 C 20.8125 -39.984375 20.203125 -39.984375 19.390625 -39.984375 Z M 19.390625 -39.984375 "/></g></g></g><g fill="#142754" fill-opacity="1"><g transform="translate(92.55351, 58.152609)"><g><path d="M 44.984375 -0.609375 L 45.53125 -0.609375 L 45.53125 0 L 26.09375 0 L 26.09375 -0.609375 L 26.640625 -0.609375 C 27.535156 -0.609375 28.195312 -0.878906 28.625 -1.421875 C 29.050781 -1.972656 29.265625 -2.492188 29.265625 -2.984375 C 29.265625 -3.472656 29.160156 -3.960938 28.953125 -4.453125 L 25.96875 -11.953125 L 11.703125 -11.953125 L 8.53125 -4.453125 C 8.332031 -3.921875 8.234375 -3.421875 8.234375 -2.953125 C 8.234375 -2.484375 8.457031 -1.972656 8.90625 -1.421875 C 9.351562 -0.878906 10.019531 -0.609375 10.90625 -0.609375 L 11.40625 -0.609375 L 11.40625 0 L -1.640625 0 L -1.640625 -0.609375 L -1.09375 -0.609375 C -0.15625 -0.609375 0.773438 -0.890625 1.703125 -1.453125 C 2.640625 -2.023438 3.414062 -2.878906 4.03125 -4.015625 L 18.109375 -35.90625 C 20.015625 -39.925781 21.03125 -42.585938 21.15625 -43.890625 L 21.703125 -43.890625 L 39.796875 -4.140625 C 40.410156 -2.960938 41.179688 -2.078125 42.109375 -1.484375 C 43.046875 -0.898438 44.003906 -0.609375 44.984375 -0.609375 Z M 12.734375 -14.5 L 24.9375 -14.5 L 19.015625 -29.5 Z M 12.734375 -14.5 "/></g></g></g><g fill="#142754" fill-opacity="1"><g transform="translate(136.194072, 58.152609)"><g><path d="M 57.71875 -0.609375 L 58.703125 -0.609375 L 58.703125 0 L 40.40625 0 L 40.40625 -0.546875 L 41.328125 -0.546875 C 42.015625 -0.585938 42.601562 -0.867188 43.09375 -1.390625 C 43.582031 -1.921875 43.785156 -2.515625 43.703125 -3.171875 L 41.328125 -25.296875 L 29.859375 -5.546875 C 28.359375 -3.023438 27.585938 -0.769531 27.546875 1.21875 L 26.9375 1.21875 L 11.28125 -25.109375 L 8.90625 -3.171875 C 8.820312 -2.515625 9.019531 -1.910156 9.5 -1.359375 C 9.988281 -0.816406 10.582031 -0.546875 11.28125 -0.546875 L 12.1875 -0.546875 L 12.1875 0 L -0.546875 0 L -0.546875 -0.609375 L 0.421875 -0.609375 C 1.566406 -0.609375 2.550781 -0.953125 3.375 -1.640625 C 4.207031 -2.335938 4.707031 -3.273438 4.875 -4.453125 L 9.9375 -43.515625 L 10.484375 -43.515625 L 29.375 -12.4375 L 47.546875 -43.515625 L 48.09375 -43.515625 L 53.265625 -4.453125 C 53.472656 -3.273438 53.992188 -2.335938 54.828125 -1.640625 C 55.660156 -0.953125 56.625 -0.609375 57.71875 -0.609375 Z M 57.71875 -0.609375 "/></g></g></g><g fill="#142754" fill-opacity="1"><g transform="translate(194.279898, 58.152609)"><g><path d="M 21.828125 0 L 2.5625 0 L 2.5625 -0.609375 L 3.359375 -0.609375 C 4.816406 -0.609375 5.929688 -1.238281 6.703125 -2.5 C 7.023438 -3.070312 7.207031 -3.703125 7.25 -4.390625 L 7.25 -38.28125 C 7.207031 -39.332031 6.8125 -40.222656 6.0625 -40.953125 C 5.3125 -41.691406 4.410156 -42.0625 3.359375 -42.0625 L 2.5625 -42.0625 L 2.5625 -42.671875 L 20.234375 -42.671875 C 24.953125 -42.671875 28.703125 -41.816406 31.484375 -40.109375 C 34.265625 -38.398438 35.675781 -35.78125 35.71875 -32.25 C 35.675781 -30.457031 35.289062 -28.890625 34.5625 -27.546875 C 33.21875 -25.023438 31.101562 -23.582031 28.21875 -23.21875 C 31.351562 -22.9375 33.9375 -21.769531 35.96875 -19.71875 C 38 -17.664062 39.015625 -15.054688 39.015625 -11.890625 C 39.015625 -8.066406 37.476562 -5.128906 34.40625 -3.078125 C 31.34375 -1.023438 27.148438 0 21.828125 0 Z M 25.96875 -31.453125 C 25.925781 -37.179688 23.320312 -40.046875 18.15625 -40.046875 L 16.390625 -40.046875 L 16.390625 -2.796875 L 19.203125 -2.796875 C 19.242188 -2.796875 19.285156 -2.796875 19.328125 -2.796875 C 22.128906 -2.796875 24.363281 -3.609375 26.03125 -5.234375 C 27.695312 -6.867188 28.53125 -9.347656 28.53125 -12.671875 C 28.53125 -16.003906 27.59375 -18.484375 25.71875 -20.109375 C 23.851562 -21.734375 21.4375 -22.546875 18.46875 -22.546875 L 18.46875 -23.09375 C 20.582031 -23.09375 22.347656 -23.773438 23.765625 -25.140625 C 25.191406 -26.503906 25.925781 -28.609375 25.96875 -31.453125 Z M 25.96875 -31.453125 "/></g></g></g><g fill="#142754" fill-opacity="1"><g transform="translate(235.116724, 58.152609)"><g><path d="M 32.25 -0.609375 C 33.300781 -0.609375 34.113281 -0.875 34.6875 -1.40625 C 35.613281 -2.332031 36.097656 -3.328125 36.140625 -4.390625 L 36.140625 -19.9375 L 16.390625 -19.9375 L 16.390625 -4.453125 C 16.390625 -3.390625 16.773438 -2.484375 17.546875 -1.734375 C 18.328125 -0.984375 19.242188 -0.609375 20.296875 -0.609375 L 21.03125 -0.609375 L 21.09375 0 L 2.5625 0 L 2.5625 -0.609375 L 3.359375 -0.609375 C 4.410156 -0.609375 5.3125 -0.984375 6.0625 -1.734375 C 6.8125 -2.484375 7.207031 -3.390625 7.25 -4.453125 L 7.25 -38.21875 C 7.207031 -39.269531 6.8125 -40.171875 6.0625 -40.921875 C 5.3125 -41.679688 4.410156 -42.0625 3.359375 -42.0625 L 2.5625 -42.0625 L 2.5625 -42.671875 L 21.09375 -42.671875 L 21.03125 -42.0625 L 20.296875 -42.0625 C 19.242188 -42.0625 18.328125 -41.679688 17.546875 -40.921875 C 16.773438 -40.171875 16.390625 -39.269531 16.390625 -38.21875 L 16.390625 -22.546875 L 36.140625 -22.546875 L 36.140625 -38.21875 C 36.097656 -39.269531 35.703125 -40.171875 34.953125 -40.921875 C 34.203125 -41.679688 33.300781 -42.0625 32.25 -42.0625 L 31.453125 -42.0625 L 31.453125 -42.671875 L 49.984375 -42.671875 L 49.984375 -42.0625 L 49.1875 -42.0625 C 48.132812 -42.0625 47.21875 -41.679688 46.4375 -40.921875 C 45.664062 -40.171875 45.28125 -39.269531 45.28125 -38.21875 L 45.28125 -4.453125 C 45.28125 -3.390625 45.664062 -2.484375 46.4375 -1.734375 C 47.21875 -0.984375 48.132812 -0.609375 49.1875 -0.609375 L 49.984375 -0.609375 L 49.984375 0 L 31.453125 0 L 31.453125 -0.609375 Z M 32.25 -0.609375 "/></g></g></g><g fill="#142754" fill-opacity="1"><g transform="translate(287.229409, 58.152609)"><g><path d="M 44.984375 -0.609375 L 45.53125 -0.609375 L 45.53125 0 L 26.09375 0 L 26.09375 -0.609375 L 26.640625 -0.609375 C 27.535156 -0.609375 28.195312 -0.878906 28.625 -1.421875 C 29.050781 -1.972656 29.265625 -2.492188 29.265625 -2.984375 C 29.265625 -3.472656 29.160156 -3.960938 28.953125 -4.453125 L 25.96875 -11.953125 L 11.703125 -11.953125 L 8.53125 -4.453125 C 8.332031 -3.921875 8.234375 -3.421875 8.234375 -2.953125 C 8.234375 -2.484375 8.457031 -1.972656 8.90625 -1.421875 C 9.351562 -0.878906 10.019531 -0.609375 10.90625 -0.609375 L 11.40625 -0.609375 L 11.40625 0 L -1.640625 0 L -1.640625 -0.609375 L -1.09375 -0.609375 C -0.15625 -0.609375 0.773438 -0.890625 1.703125 -1.453125 C 2.640625 -2.023438 3.414062 -2.878906 4.03125 -4.015625 L 18.109375 -35.90625 C 20.015625 -39.925781 21.03125 -42.585938 21.15625 -43.890625 L 21.703125 -43.890625 L 39.796875 -4.140625 C 40.410156 -2.960938 41.179688 -2.078125 42.109375 -1.484375 C 43.046875 -0.898438 44.003906 -0.609375 44.984375 -0.609375 Z M 12.734375 -14.5 L 24.9375 -14.5 L 19.015625 -29.5 Z M 12.734375 -14.5 "/></g></g></g><g clip-path="url(#53b7785811)"><g transform="matrix(1, 0, 0, 1, 54, 70)"><g clip-path="url(#8112361c12)"><g fill="#b57318" fill-opacity="1"><g transform="translate(0.611142, 18.191958)"><g><path d="M 0.90625 -1.671875 C 0.90625 -2.535156 1.085938 -3.273438 1.453125 -3.890625 L 1.625 -3.890625 C 1.613281 -3.796875 1.609375 -3.695312 1.609375 -3.59375 C 1.609375 -2.769531 1.90625 -2.046875 2.5 -1.421875 C 3.09375 -0.804688 3.90625 -0.5 4.9375 -0.5 C 5.738281 -0.5 6.363281 -0.691406 6.8125 -1.078125 C 7.257812 -1.460938 7.484375 -1.945312 7.484375 -2.53125 C 7.484375 -2.882812 7.375 -3.195312 7.15625 -3.46875 C 6.9375 -3.75 6.566406 -4.054688 6.046875 -4.390625 L 2.921875 -6.46875 C 1.753906 -7.238281 1.171875 -8.195312 1.171875 -9.34375 C 1.171875 -9.457031 1.179688 -9.578125 1.203125 -9.703125 C 1.273438 -10.648438 1.644531 -11.410156 2.3125 -11.984375 C 2.976562 -12.566406 3.867188 -12.859375 4.984375 -12.859375 C 5.640625 -12.859375 6.457031 -12.796875 7.4375 -12.671875 L 8.5625 -12.671875 L 8.328125 -10.03125 L 8.15625 -10.03125 C 8.15625 -10.65625 7.921875 -11.15625 7.453125 -11.53125 C 6.992188 -11.90625 6.378906 -12.09375 5.609375 -12.09375 C 4.679688 -12.09375 4.003906 -11.804688 3.578125 -11.234375 C 3.367188 -10.953125 3.265625 -10.671875 3.265625 -10.390625 C 3.265625 -10.117188 3.316406 -9.890625 3.421875 -9.703125 C 3.585938 -9.390625 3.953125 -9.050781 4.515625 -8.6875 L 7.953125 -6.46875 C 9.035156 -5.757812 9.578125 -4.832031 9.578125 -3.6875 C 9.578125 -2.414062 9.140625 -1.441406 8.265625 -0.765625 C 7.398438 -0.0859375 6.25 0.25 4.8125 0.25 C 3.988281 0.25 3.234375 0.148438 2.546875 -0.046875 C 1.859375 -0.242188 1.351562 -0.507812 1.03125 -0.84375 C 0.945312 -1.070312 0.90625 -1.347656 0.90625 -1.671875 Z M 0.90625 -1.671875 "/></g></g></g><g fill="#b57318" fill-opacity="1"><g transform="translate(14.29118, 18.191958)"><g><path d="M 0.984375 -0.1875 C 1.296875 -0.1875 1.5625 -0.296875 1.78125 -0.515625 C 2.007812 -0.734375 2.128906 -1 2.140625 -1.3125 L 2.140625 -11.296875 C 2.128906 -11.734375 1.929688 -12.0625 1.546875 -12.28125 C 1.378906 -12.375 1.191406 -12.421875 0.984375 -12.421875 L 0.75 -12.421875 L 0.75 -12.59375 L 6.234375 -12.59375 L 6.203125 -12.421875 L 6 -12.421875 C 5.5625 -12.421875 5.226562 -12.234375 5 -11.859375 C 4.894531 -11.691406 4.84375 -11.503906 4.84375 -11.296875 L 4.84375 -1.3125 C 4.84375 -1 4.957031 -0.734375 5.1875 -0.515625 C 5.414062 -0.296875 5.6875 -0.1875 6 -0.1875 L 6.203125 -0.1875 L 6.234375 0 L 0.75 0 L 0.75 -0.1875 Z M 13.984375 0 L 12.515625 0 C 10.691406 0 9.398438 -0.5 8.640625 -1.5 C 6.492188 -4.414062 5.421875 -5.894531 5.421875 -5.9375 L 9.6875 -11.59375 C 9.78125 -11.707031 9.828125 -11.8125 9.828125 -11.90625 C 9.828125 -12.007812 9.8125 -12.097656 9.78125 -12.171875 C 9.675781 -12.347656 9.503906 -12.4375 9.265625 -12.4375 L 9.09375 -12.4375 L 9.09375 -12.59375 L 13.21875 -12.59375 L 13.21875 -12.4375 L 13.140625 -12.4375 C 12.335938 -12.4375 11.679688 -12.148438 11.171875 -11.578125 L 7.671875 -7.421875 L 12.15625 -1.296875 C 12.707031 -0.578125 13.316406 -0.207031 13.984375 -0.1875 Z M 13.984375 0 "/></g></g></g><g fill="#b57318" fill-opacity="1"><g transform="translate(31.301207, 18.191958)"><g><path d="M 0.984375 -0.1875 C 1.296875 -0.1875 1.5625 -0.296875 1.78125 -0.515625 C 2.007812 -0.734375 2.128906 -1 2.140625 -1.3125 L 2.140625 -11.296875 C 2.128906 -11.609375 2.007812 -11.875 1.78125 -12.09375 C 1.5625 -12.3125 1.296875 -12.421875 0.984375 -12.421875 L 0.75 -12.421875 L 0.75 -12.59375 L 6.234375 -12.59375 L 6.203125 -12.421875 L 6 -12.421875 C 5.6875 -12.421875 5.414062 -12.3125 5.1875 -12.09375 C 4.957031 -11.875 4.84375 -11.609375 4.84375 -11.296875 L 4.84375 -1.3125 C 4.84375 -1 4.957031 -0.734375 5.1875 -0.515625 C 5.414062 -0.296875 5.6875 -0.1875 6 -0.1875 L 6.203125 -0.1875 L 6.234375 0 L 0.75 0 L 0.75 -0.1875 Z M 0.984375 -0.1875 "/></g></g></g><g fill="#b57318" fill-opacity="1"><g transform="translate(41.633253, 18.191958)"><g><path d="M 0.984375 -0.1875 C 1.296875 -0.1875 1.5625 -0.296875 1.78125 -0.515625 C 2.007812 -0.734375 2.128906 -1 2.140625 -1.3125 L 2.140625 -11.28125 C 2.128906 -11.59375 2.007812 -11.859375 1.78125 -12.078125 C 1.5625 -12.304688 1.296875 -12.421875 0.984375 -12.421875 L 0.75 -12.421875 L 0.75 -12.59375 L 6.234375 -12.59375 L 6.203125 -12.421875 L 6 -12.421875 C 5.6875 -12.421875 5.414062 -12.304688 5.1875 -12.078125 C 4.957031 -11.859375 4.84375 -11.59375 4.84375 -11.28125 L 4.84375 -0.78125 L 7.203125 -0.78125 C 8.078125 -0.78125 8.8125 -1.03125 9.40625 -1.53125 C 10 -2.03125 10.441406 -2.742188 10.734375 -3.671875 L 10.90625 -3.671875 L 10.078125 0 L 0.75 0 L 0.75 -0.1875 Z M 0.984375 -0.1875 "/></g></g></g><g fill="#b57318" fill-opacity="1"><g transform="translate(55.997281, 18.191958)"><g><path d="M 0.984375 -0.1875 C 1.296875 -0.1875 1.5625 -0.296875 1.78125 -0.515625 C 2.007812 -0.734375 2.128906 -1 2.140625 -1.3125 L 2.140625 -11.28125 C 2.128906 -11.59375 2.007812 -11.859375 1.78125 -12.078125 C 1.5625 -12.304688 1.296875 -12.421875 0.984375 -12.421875 L 0.75 -12.421875 L 0.75 -12.59375 L 6.234375 -12.59375 L 6.203125 -12.421875 L 6 -12.421875 C 5.6875 -12.421875 5.414062 -12.304688 5.1875 -12.078125 C 4.957031 -11.859375 4.84375 -11.59375 4.84375 -11.28125 L 4.84375 -0.78125 L 7.203125 -0.78125 C 8.078125 -0.78125 8.8125 -1.03125 9.40625 -1.53125 C 10 -2.03125 10.441406 -2.742188 10.734375 -3.671875 L 10.90625 -3.671875 L 10.078125 0 L 0.75 0 L 0.75 -0.1875 Z M 0.984375 -0.1875 "/></g></g></g><g fill="#b57318" fill-opacity="1"><g transform="translate(70.469307, 18.191958)"><g/></g></g><g fill="#b57318" fill-opacity="1"><g transform="translate(78.353359, 18.191958)"><g><path d="M 0.90625 -1.671875 C 0.90625 -2.535156 1.085938 -3.273438 1.453125 -3.890625 L 1.625 -3.890625 C 1.613281 -3.796875 1.609375 -3.695312 1.609375 -3.59375 C 1.609375 -2.769531 1.90625 -2.046875 2.5 -1.421875 C 3.09375 -0.804688 3.90625 -0.5 4.9375 -0.5 C 5.738281 -0.5 6.363281 -0.691406 6.8125 -1.078125 C 7.257812 -1.460938 7.484375 -1.945312 7.484375 -2.53125 C 7.484375 -2.882812 7.375 -3.195312 7.15625 -3.46875 C 6.9375 -3.75 6.566406 -4.054688 6.046875 -4.390625 L 2.921875 -6.46875 C 1.753906 -7.238281 1.171875 -8.195312 1.171875 -9.34375 C 1.171875 -9.457031 1.179688 -9.578125 1.203125 -9.703125 C 1.273438 -10.648438 1.644531 -11.410156 2.3125 -11.984375 C 2.976562 -12.566406 3.867188 -12.859375 4.984375 -12.859375 C 5.640625 -12.859375 6.457031 -12.796875 7.4375 -12.671875 L 8.5625 -12.671875 L 8.328125 -10.03125 L 8.15625 -10.03125 C 8.15625 -10.65625 7.921875 -11.15625 7.453125 -11.53125 C 6.992188 -11.90625 6.378906 -12.09375 5.609375 -12.09375 C 4.679688 -12.09375 4.003906 -11.804688 3.578125 -11.234375 C 3.367188 -10.953125 3.265625 -10.671875 3.265625 -10.390625 C 3.265625 -10.117188 3.316406 -9.890625 3.421875 -9.703125 C 3.585938 -9.390625 3.953125 -9.050781 4.515625 -8.6875 L 7.953125 -6.46875 C 9.035156 -5.757812 9.578125 -4.832031 9.578125 -3.6875 C 9.578125 -2.414062 9.140625 -1.441406 8.265625 -0.765625 C 7.398438 -0.0859375 6.25 0.25 4.8125 0.25 C 3.988281 0.25 3.234375 0.148438 2.546875 -0.046875 C 1.859375 -0.242188 1.351562 -0.507812 1.03125 -0.84375 C 0.945312 -1.070312 0.90625 -1.347656 0.90625 -1.671875 Z M 0.90625 -1.671875 "/></g></g></g><g fill="#b57318" fill-opacity="1"><g transform="translate(92.141394, 18.191958)"><g><path d="M 2.796875 -11.09375 C 4.078125 -12.269531 5.800781 -12.859375 7.96875 -12.859375 C 10.132812 -12.859375 11.851562 -12.269531 13.125 -11.09375 C 14.40625 -9.914062 15.046875 -8.316406 15.046875 -6.296875 C 15.046875 -4.285156 14.40625 -2.691406 13.125 -1.515625 C 11.851562 -0.335938 10.132812 0.25 7.96875 0.25 C 5.800781 0.25 4.078125 -0.335938 2.796875 -1.515625 C 1.515625 -2.691406 0.875 -4.285156 0.875 -6.296875 C 0.875 -8.316406 1.515625 -9.914062 2.796875 -11.09375 Z M 4.9375 -2.0625 C 5.675781 -1.019531 6.679688 -0.5 7.953125 -0.5 C 9.222656 -0.5 10.226562 -1.019531 10.96875 -2.0625 C 11.71875 -3.101562 12.09375 -4.515625 12.09375 -6.296875 C 12.09375 -8.085938 11.71875 -9.5 10.96875 -10.53125 C 10.226562 -11.570312 9.222656 -12.09375 7.953125 -12.09375 C 6.679688 -12.09375 5.675781 -11.570312 4.9375 -10.53125 C 4.195312 -9.5 3.828125 -8.085938 3.828125 -6.296875 C 3.828125 -4.515625 4.195312 -3.101562 4.9375 -2.0625 Z M 4.9375 -2.0625 "/></g></g></g><g fill="#b57318" fill-opacity="1"><g transform="translate(110.969418, 18.191958)"><g><path d="M 0.984375 -0.1875 C 1.296875 -0.1875 1.5625 -0.296875 1.78125 -0.515625 C 2.007812 -0.734375 2.128906 -1 2.140625 -1.3125 L 2.140625 -11.28125 C 2.128906 -11.59375 2.007812 -11.859375 1.78125 -12.078125 C 1.5625 -12.304688 1.296875 -12.421875 0.984375 -12.421875 L 0.75 -12.421875 L 0.75 -12.59375 L 6.234375 -12.59375 L 6.203125 -12.421875 L 6 -12.421875 C 5.6875 -12.421875 5.414062 -12.304688 5.1875 -12.078125 C 4.957031 -11.859375 4.84375 -11.59375 4.84375 -11.28125 L 4.84375 -0.78125 L 7.203125 -0.78125 C 8.078125 -0.78125 8.8125 -1.03125 9.40625 -1.53125 C 10 -2.03125 10.441406 -2.742188 10.734375 -3.671875 L 10.90625 -3.671875 L 10.078125 0 L 0.75 0 L 0.75 -0.1875 Z M 0.984375 -0.1875 "/></g></g></g><g fill="#b57318" fill-opacity="1"><g transform="translate(125.333447, 18.191958)"><g><path d="M 14.21875 -12.421875 L 13.90625 -12.421875 C 13.65625 -12.421875 13.441406 -12.335938 13.265625 -12.171875 C 13.085938 -12.015625 12.992188 -11.816406 12.984375 -11.578125 L 12.984375 -4.546875 C 12.984375 -3.078125 12.519531 -1.910156 11.59375 -1.046875 C 10.664062 -0.179688 9.398438 0.25 7.796875 0.25 C 5.898438 0.25 4.445312 -0.171875 3.4375 -1.015625 C 2.425781 -1.859375 1.921875 -3.03125 1.921875 -4.53125 L 1.921875 -11.515625 C 1.910156 -11.878906 1.75 -12.144531 1.4375 -12.3125 C 1.289062 -12.382812 1.132812 -12.421875 0.96875 -12.421875 L 0.6875 -12.421875 L 0.6875 -12.59375 L 5.875 -12.59375 L 5.875 -12.421875 L 5.578125 -12.421875 C 5.316406 -12.421875 5.09375 -12.335938 4.90625 -12.171875 C 4.726562 -12.015625 4.632812 -11.8125 4.625 -11.5625 L 4.625 -4.6875 C 4.625 -3.40625 4.9375 -2.394531 5.5625 -1.65625 C 6.1875 -0.914062 7.046875 -0.546875 8.140625 -0.546875 C 9.234375 -0.546875 10.097656 -0.894531 10.734375 -1.59375 C 11.367188 -2.289062 11.691406 -3.242188 11.703125 -4.453125 L 11.703125 -11.5625 C 11.671875 -11.90625 11.507812 -12.15625 11.21875 -12.3125 C 11.070312 -12.382812 10.914062 -12.421875 10.75 -12.421875 L 10.453125 -12.421875 L 10.453125 -12.59375 L 14.21875 -12.59375 Z M 14.21875 -12.421875 "/></g></g></g><g fill="#b57318" fill-opacity="1"><g transform="translate(143.495471, 18.191958)"><g><path d="M 7.359375 -11.859375 L 7.359375 -1.296875 C 7.367188 -0.984375 7.484375 -0.71875 7.703125 -0.5 C 7.929688 -0.289062 8.203125 -0.1875 8.515625 -0.1875 L 8.734375 -0.1875 L 8.75 0 L 3.28125 0 L 3.28125 -0.1875 L 3.515625 -0.1875 C 3.804688 -0.1875 4.0625 -0.289062 4.28125 -0.5 C 4.507812 -0.71875 4.632812 -0.976562 4.65625 -1.28125 L 4.65625 -11.859375 L 2.234375 -11.859375 C 1.679688 -11.847656 1.242188 -11.671875 0.921875 -11.328125 C 0.597656 -10.992188 0.4375 -10.5625 0.4375 -10.03125 L 0.4375 -9.8125 L 0.25 -9.8125 L 0.25 -12.9375 C 0.738281 -12.738281 1.445312 -12.632812 2.375 -12.625 L 9.625 -12.625 C 10 -12.625 10.40625 -12.65625 10.84375 -12.71875 C 11.28125 -12.789062 11.582031 -12.863281 11.75 -12.9375 L 11.75 -9.8125 L 11.578125 -9.8125 L 11.578125 -10.03125 C 11.578125 -10.769531 11.296875 -11.296875 10.734375 -11.609375 C 10.460938 -11.765625 10.144531 -11.847656 9.78125 -11.859375 Z M 7.359375 -11.859375 "/></g></g></g><g fill="#b57318" fill-opacity="1"><g transform="translate(158.867495, 18.191958)"><g><path d="M 0.984375 -0.1875 C 1.296875 -0.1875 1.5625 -0.296875 1.78125 -0.515625 C 2.007812 -0.734375 2.128906 -1 2.140625 -1.3125 L 2.140625 -11.296875 C 2.128906 -11.609375 2.007812 -11.875 1.78125 -12.09375 C 1.5625 -12.3125 1.296875 -12.421875 0.984375 -12.421875 L 0.75 -12.421875 L 0.75 -12.59375 L 6.234375 -12.59375 L 6.203125 -12.421875 L 6 -12.421875 C 5.6875 -12.421875 5.414062 -12.3125 5.1875 -12.09375 C 4.957031 -11.875 4.84375 -11.609375 4.84375 -11.296875 L 4.84375 -1.3125 C 4.84375 -1 4.957031 -0.734375 5.1875 -0.515625 C 5.414062 -0.296875 5.6875 -0.1875 6 -0.1875 L 6.203125 -0.1875 L 6.234375 0 L 0.75 0 L 0.75 -0.1875 Z M 0.984375 -0.1875 "/></g></g></g><g fill="#b57318" fill-opacity="1"><g transform="translate(168.839544, 18.191958)"><g><path d="M 2.796875 -11.09375 C 4.078125 -12.269531 5.800781 -12.859375 7.96875 -12.859375 C 10.132812 -12.859375 11.851562 -12.269531 13.125 -11.09375 C 14.40625 -9.914062 15.046875 -8.316406 15.046875 -6.296875 C 15.046875 -4.285156 14.40625 -2.691406 13.125 -1.515625 C 11.851562 -0.335938 10.132812 0.25 7.96875 0.25 C 5.800781 0.25 4.078125 -0.335938 2.796875 -1.515625 C 1.515625 -2.691406 0.875 -4.285156 0.875 -6.296875 C 0.875 -8.316406 1.515625 -9.914062 2.796875 -11.09375 Z M 4.9375 -2.0625 C 5.675781 -1.019531 6.679688 -0.5 7.953125 -0.5 C 9.222656 -0.5 10.226562 -1.019531 10.96875 -2.0625 C 11.71875 -3.101562 12.09375 -4.515625 12.09375 -6.296875 C 12.09375 -8.085938 11.71875 -9.5 10.96875 -10.53125 C 10.226562 -11.570312 9.222656 -12.09375 7.953125 -12.09375 C 6.679688 -12.09375 5.675781 -11.570312 4.9375 -10.53125 C 4.195312 -9.5 3.828125 -8.085938 3.828125 -6.296875 C 3.828125 -4.515625 4.195312 -3.101562 4.9375 -2.0625 Z M 4.9375 -2.0625 "/></g></g></g><g fill="#b57318" fill-opacity="1"><g transform="translate(187.667568, 18.191958)"><g><path d="M 14.703125 -12.421875 C 14.285156 -12.421875 13.96875 -12.238281 13.75 -11.875 C 13.65625 -11.71875 13.601562 -11.539062 13.59375 -11.34375 L 13.59375 -2.046875 C 13.59375 -1.242188 13.644531 -0.566406 13.75 -0.015625 L 13.8125 0.25 L 13.640625 0.25 L 4.546875 -8.40625 L 4.546875 -1.265625 C 4.546875 -0.960938 4.65625 -0.707031 4.875 -0.5 C 5.09375 -0.289062 5.351562 -0.1875 5.65625 -0.1875 L 6 -0.1875 L 6 0 L 0.546875 0 L 0.546875 -0.1875 L 0.859375 -0.1875 C 1.171875 -0.1875 1.4375 -0.289062 1.65625 -0.5 C 1.875 -0.707031 1.984375 -0.96875 1.984375 -1.28125 L 1.984375 -10.625 C 1.984375 -11.414062 1.925781 -12.070312 1.8125 -12.59375 L 1.78125 -12.875 L 1.9375 -12.875 L 11.03125 -4.21875 L 11.03125 -11.328125 C 11.019531 -11.640625 10.90625 -11.898438 10.6875 -12.109375 C 10.476562 -12.316406 10.222656 -12.421875 9.921875 -12.421875 L 9.59375 -12.421875 L 9.59375 -12.59375 L 15.046875 -12.59375 L 15.046875 -12.421875 Z M 14.703125 -12.421875 "/></g></g></g><g fill="#b57318" fill-opacity="1"><g transform="translate(206.62158, 18.191958)"><g><path d="M 0.90625 -1.671875 C 0.90625 -2.535156 1.085938 -3.273438 1.453125 -3.890625 L 1.625 -3.890625 C 1.613281 -3.796875 1.609375 -3.695312 1.609375 -3.59375 C 1.609375 -2.769531 1.90625 -2.046875 2.5 -1.421875 C 3.09375 -0.804688 3.90625 -0.5 4.9375 -0.5 C 5.738281 -0.5 6.363281 -0.691406 6.8125 -1.078125 C 7.257812 -1.460938 7.484375 -1.945312 7.484375 -2.53125 C 7.484375 -2.882812 7.375 -3.195312 7.15625 -3.46875 C 6.9375 -3.75 6.566406 -4.054688 6.046875 -4.390625 L 2.921875 -6.46875 C 1.753906 -7.238281 1.171875 -8.195312 1.171875 -9.34375 C 1.171875 -9.457031 1.179688 -9.578125 1.203125 -9.703125 C 1.273438 -10.648438 1.644531 -11.410156 2.3125 -11.984375 C 2.976562 -12.566406 3.867188 -12.859375 4.984375 -12.859375 C 5.640625 -12.859375 6.457031 -12.796875 7.4375 -12.671875 L 8.5625 -12.671875 L 8.328125 -10.03125 L 8.15625 -10.03125 C 8.15625 -10.65625 7.921875 -11.15625 7.453125 -11.53125 C 6.992188 -11.90625 6.378906 -12.09375 5.609375 -12.09375 C 4.679688 -12.09375 4.003906 -11.804688 3.578125 -11.234375 C 3.367188 -10.953125 3.265625 -10.671875 3.265625 -10.390625 C 3.265625 -10.117188 3.316406 -9.890625 3.421875 -9.703125 C 3.585938 -9.390625 3.953125 -9.050781 4.515625 -8.6875 L 7.953125 -6.46875 C 9.035156 -5.757812 9.578125 -4.832031 9.578125 -3.6875 C 9.578125 -2.414062 9.140625 -1.441406 8.265625 -0.765625 C 7.398438 -0.0859375 6.25 0.25 4.8125 0.25 C 3.988281 0.25 3.234375 0.148438 2.546875 -0.046875 C 1.859375 -0.242188 1.351562 -0.507812 1.03125 -0.84375 C 0.945312 -1.070312 0.90625 -1.347656 0.90625 -1.671875 Z M 0.90625 -1.671875 "/></g></g></g><g fill="#b57318" fill-opacity="1"><g transform="translate(220.419725, 18.191958)"><g/></g></g><g fill="#b57318" fill-opacity="1"><g transform="translate(228.303777, 18.191958)"><g/></g></g></g></g></g><path stroke-linecap="butt" transform="matrix(1.232101, 0, 0, 1.232101, 282.202054, 82.030855)" fill="none" stroke-linejoin="miter" d="M 0.00086904 0.501243 L 29.599702 0.501243 " stroke="#f3c13d" stroke-width="1" stroke-opacity="1" stroke-miterlimit="4"/><path stroke-linecap="butt" transform="matrix(1.232101, 0, 0, 1.232101, 11.551323, 81.414799)" fill="none" stroke-linejoin="miter" d="M -0.000439946 0.500325 L 29.601563 0.500325 " stroke="#f3c13d" stroke-width="1" stroke-opacity="1" stroke-miterlimit="4"/></g></g></svg>